PathFileType	4	(X/Y/Z)	E:\Qualisys_Data\Carbon_Farble_Plate\Data\Amateur_Runner\S1\T3\S1T3V13_c3d.trc
DataRate	CameraRate	NumFrames	NumMarkers	Units	OrigDataRate	OrigDataStartFrame	OrigNumFrames
200.000000	200.000000	4	39	mm	200.000000	39	318
Frame#	Time	LSHO			RSHO			LICST			RICST			LASIS			LHEEL			RASIS			LTROC			RTROC			SACR			LTH1			LSK4			LTH2			LTH3			RHM5			LSK2			LTH4			RTH1			LTOE			RTH2			RTH3			RTH4			LLEP			RLEP			LSK1			LSK3			RSK1			LHM5			RSK2			LFT1			RSK3			RSK4			LLME			RLME			RTOE			RHEEL			RFT1			RFT2			LFT2			
		X1	Y1	Z1	X2	Y2	Z2	X3	Y3	Z3	X4	Y4	Z4	X5	Y5	Z5	X6	Y6	Z6	X7	Y7	Z7	X8	Y8	Z8	X9	Y9	Z9	X10	Y10	Z10	X11	Y11	Z11	X12	Y12	Z12	X13	Y13	Z13	X14	Y14	Z14	X15	Y15	Z15	X16	Y16	Z16	X17	Y17	Z17	X18	Y18	Z18	X19	Y19	Z19	X20	Y20	Z20	X21	Y21	Z21	X22	Y22	Z22	X23	Y23	Z23	X24	Y24	Z24	X25	Y25	Z25	X26	Y26	Z26	X27	Y27	Z27	X28	Y28	Z28	X29	Y29	Z29	X30	Y30	Z30	X31	Y31	Z31	X32	Y32	Z32	X33	Y33	Z33	X34	Y34	Z34	X35	Y35	Z35	X36	Y36	Z36	X37	Y37	Z37	X38	Y38	Z38	X39	Y39	Z39	

40	0.195	-1606.707397460938	1472.180053710938	-566.0438842773438	-1662.248657226562	1441.457275390625	-237.8770751953125	-1676.831665039062	984.1649780273438	-553.6474609375	-1683.188232421875	1036.786987304688	-256.32666015625	-1632.384033203125	950.439697265625	-521.3681030273438	-2039.693481445312	424.5450744628906	-448.6196899414062	-1642.249267578125	991.207763671875	-255.1455841064453	-1737.891235351562	861.0845336914062	-560.1029663085938	-1741.580932617188	896.653076171875	-225.5355682373047	-1796.534545898438	1024.186767578125	-403.1796264648438	-1580.956176757812	734.543212890625	-549.6751098632812	-1889.907348632812	457.2478942871094	-483.8329772949219	-1660.167358398438	714.2000732421875	-571.7542114257812	-1560.3408203125	632.4764404296875	-544.3751220703125	-1569.3916015625	68.77509307861328	-276.068115234375	-1804.77490234375	478.237060546875	-530.7181396484375	-1642.710815429688	615.6519775390625	-557.9321899414062	-1582.17431640625	799.439697265625	-243.59033203125	-1978.968139648438	182.1828460693359	-453.2338562011719	-1652.458374023438	773.3695068359375	-213.8218688964844	-1550.396728515625	702.6902465820312	-251.5661315917969	-1625.289184570312	678.4784545898438	-231.6690063476562	-1595.91015625	479.359375	-530.970458984375	-1559.326171875	519.7410888671875	-279.7055053710938	-1784.1474609375	393.7709045410156	-521.7852783203125	-1884.065551757812	380.8181457519531	-512.3343505859375	-1601.19970703125	328.4717407226562	-270.3444519042969	-2027.463500976562	241.2259063720703	-508.9149169921875	-1680.154296875	351.2229614257812	-271.2177734375	-2058.43359375	410.0413818359375	-414.3269348144531	-1626.126220703125	233.8539123535156	-287.5299682617188	-1703.283081054688	257.0343933105469	-298.8170471191406	-2002.071166992188	382.4685363769531	-497.3265380859375	-1696.35595703125	121.6677932739258	-290.0398254394531	-1516.75244140625	73.0042495727539	-350.3849487304688	-1767.739501953125	95.55043029785156	-329.9879455566406	-1761.915771484375	63.98957061767578	-358.0140380859375	-1768.2724609375	70.58895111083984	-305.7573547363281	-2071.00634765625	410.5084533691406	-464.6038513183594
41	0.2	-1592.252563476562	1472.247680664062	-566.89501953125	-1644.050903320312	1441.18701171875	-238.1001892089844	-1662.30712890625	985.1524658203124	-552.7472534179688	-1668.233642578125	1036.902709960938	-255.9597320556641	-1617.510498046875	950.31103515625	-521.5234375	-2012.346069335938	420.0205078125	-447.3624267578125	-1628.83349609375	990.7119750976562	-253.3693237304688	-1722.769775390625	860.6859130859375	-558.6556396484375	-1725.963623046875	897.30908203125	-224.5928955078125	-1781.222412109375	1024.613037109375	-402.2484436035156	-1562.325805664062	737.99072265625	-549.1542358398438	-1863.654541015625	455.8373413085938	-483.0498352050781	-1641.582641601562	715.8231201171875	-571.519287109375	-1538.616455078125	636.8391723632812	-544.3656005859375	-1569.369506835938	68.48267364501953	-276.1376953125	-1777.650512695312	477.4523010253906	-530.9207153320312	-1620.584838867188	617.6992797851562	-557.6734619140625	-1568.241455078125	796.1138916015625	-243.1310882568359	-1947.38134765625	178.8145599365234	-453.236083984375	-1640.295166015625	771.8723754882812	-213.7805023193359	-1539.086791992188	699.31640625	-250.9934844970703	-1615.685424804688	676.5612182617188	-231.2374725341797	-1569.64306640625	481.8352661132812	-531.0291748046875	-1553.87841796875	516.0806884765625	-277.2235717773438	-1757.982055664062	394.37158203125	-522.3291625976562	-1859.226196289062	382.2998352050781	-512.984130859375	-1598.14208984375	326.2797546386719	-269.0703430175781	-1996.429321289062	237.5509338378906	-508.9670104980469	-1675.869140625	350.2496337890625	-272.2922973632812	-2032.629760742188	405.3927307128906	-414.2825927734375	-1624.840209960938	231.3695526123047	-287.0587768554688	-1700.637451171875	256.2364196777344	-299.9755249023438	-1974.825805664062	378.7324523925781	-497.7514343261719	-1696.19140625	121.4317092895508	-289.5133056640625	-1517.07373046875	72.77374267578125	-350.5824584960938	-1767.897094726562	95.8974609375	-329.618408203125	-1762.639770507812	65.07553100585938	-357.7062377929688	-1768.302490234375	70.70455169677734	-305.5522155761719	-2044.54638671875	406.4151916503906	-465.7591857910156
42	0.205	-1577.633666992188	1472.539672851562	-567.0612182617188	-1625.63525390625	1441.63623046875	-238.4099426269531	-1647.298217773438	986.1069946289062	-551.9107055664062	-1651.042236328125	1036.934692382812	-255.0250091552734	-1602.788696289062	951.8684692382812	-521.3681030273438	-1985.950927734375	415.3054504394531	-447.4045715332031	-1611.539916992188	991.3839721679688	-254.3605194091797	-1707.720947265625	861.4115600585938	-557.925048828125	-1709.753051757812	897.5724487304688	-223.8994750976562	-1765.27490234375	1025.159301757812	-400.6566467285156	-1543.37060546875	742.3871459960938	-548.8442993164062	-1838.414794921875	453.8675537109375	-483.250244140625	-1622.871948242188	717.341064453125	-571.90771484375	-1517.804809570312	641.5169677734375	-544.0874633789062	-1569.32470703125	68.2132339477539	-276.0524291992188	-1749.826293945312	476.6779479980469	-530.7594604492188	-1598.983764648438	620.1251220703125	-557.750732421875	-1555.336791992188	792.2206420898438	-242.3614044189453	-1915.204956054688	175.6884307861328	-454.0763244628906	-1625.3193359375	770.8292236328125	-212.7559204101562	-1528.641357421875	694.6233520507812	-250.1327362060547	-1604.889404296875	674.4010620117188	-231.1907043457031	-1544.458129882812	485.6683349609375	-531.4151000976562	-1547.600708007812	512.3377075195312	-277.083740234375	-1730.8193359375	394.8880310058594	-522.4321899414062	-1830.180786132812	378.8198547363281	-510.9604797363281	-1593.95068359375	324.542724609375	-268.3665466308594	-1965.71240234375	232.7415161132812	-509.683837890625	-1672.24072265625	349.8118286132812	-273.4451904296875	-2006.332641601562	399.7388610839844	-414.3105163574219	-1623.948608398438	229.1749725341797	-286.7443237304688	-1698.278930664062	255.3521728515625	-300.5422668457031	-1947.189331054688	375.1524963378906	-497.4578247070312	-1696.104370117188	122.1686935424805	-289.4858093261719	-1516.8134765625	72.31616973876953	-350.5483703613281	-1767.850952148438	96.76496887207033	-329.6424255371094	-1762.56494140625	65.61153411865234	-357.4429321289062	-1768.1982421875	71.34544372558594	-305.5880432128906	-2017.428588867188	400.1778564453125	-465.4946899414062
43	0.21	-1564.078979492188	1473.89501953125	-567.91162109375	-1607.615966796875	1442.292358398438	-238.5902709960938	-1633.331420898438	987.7345581054688	-551.9063110351562	-1633.6708984375	1037.634887695312	-254.4728088378906	-1588.266357421875	953.5966796875	-521.5889892578125	-1959.962036132812	409.9429626464844	-447.579833984375	-1593.655883789062	991.9615478515624	-255.4997100830078	-1692.455688476562	862.7820434570312	-556.916259765625	-1693.501586914062	897.8717041015625	-222.7211456298828	-1750.1650390625	1026.130004882812	-399.3026733398438	-1525.834106445312	746.8407592773438	-549.079833984375	-1812.445190429688	451.4226684570312	-482.8505554199219	-1604.186889648438	719.7648315429688	-571.6282348632812	-1496.79736328125	646.3885498046875	-544.0388793945312	-1568.909912109375	68.05626678466797	-275.6440124511719	-1723.98779296875	475.1505737304688	-530.4241943359375	-1577.119995117188	622.5765991210938	-557.4148559570312	-1540.72705078125	788.4437866210938	-240.92333984375	-1884.873168945312	172.0205230712891	-452.7632446289062	-1613.906860351562	768.5296630859375	-213.5065765380859	-1518.152221679688	689.8745727539062	-249.7572174072266	-1595.648315429688	671.6961669921875	-231.8564605712891	-1519.491943359375	490.0795288085938	-531.2099609375	-1541.59716796875	508.9344177246094	-277.1674499511719	-1703.909423828125	395.3534240722656	-522.2199096679688	-1802.573608398438	376.9972839355469	-510.63623046875	-1589.771240234375	322.6688537597656	-268.3807373046875	-1933.66845703125	228.9587707519531	-509.8973388671875	-1667.827026367188	347.884033203125	-272.9774475097656	-1980.104248046875	393.7079772949219	-414.2562255859375	-1621.189453125	227.3383636474609	-286.9014892578125	-1695.263305664062	254.8560485839844	-301.1552734375	-1919.867797851562	370.5126647949219	-497.4193420410156	-1695.08984375	122.632080078125	-289.3675842285156	-1516.010131835938	71.38440704345703	-350.3945617675781	-1767.874389648438	97.89266967773438	-328.9934387207031	-1762.261962890625	66.49201202392578	-357.5072326660156	-1768.800659179688	72.04753875732422	-305.2058715820312	-1990.089477539062	394.37060546875	-466.0076599121094
